<?xml version="1.0" standalone="no"?>
<!DOCTYPE svg PUBLIC "-//W3C//DTD SVG 20010904//EN"
 "http://www.w3.org/TR/2001/REC-SVG-20010904/DTD/svg10.dtd">
<svg version="1.0" xmlns="http://www.w3.org/2000/svg"
 width="100" height="100" viewBox="0 0 100 100"
 preserveAspectRatio="xMidYMid meet">

<g transform="translate(0.000000,1024.000000) scale(0.100000,-0.100000)"
fill="#000000" stroke="none">
<path d="M7050 8016 c-160 -35 -304 -173 -345 -331 -44 -170 6 -325 179 -555
51 -69 112 -144 134 -168 22 -24 35 -45 29 -47 -29 -9 -211 -44 -216 -41 -3 2
-27 -39 -52 -91 -42 -86 -45 -94 -25 -90 174 39 366 106 451 158 65 39 90 77
82 125 -5 29 0 39 35 74 59 62 193 252 228 324 16 35 35 94 42 133 40 238
-130 473 -372 512 -79 13 -99 13 -170 -3z m362 -253 c62 -61 60 -65 -132 -255
-118 -117 -176 -168 -192 -168 -15 0 -57 35 -130 108 -59 59 -108 113 -108
120 0 21 71 92 92 92 11 0 45 -25 77 -55 32 -30 60 -55 63 -55 2 0 60 56 128
125 77 77 132 125 144 125 11 0 37 -17 58 -37z"/>
<path d="M5955 7636 c-63 -38 -336 -193 -477 -270 l-53 -29 65 -22 c78 -27
234 -95 470 -205 96 -45 191 -89 210 -97 19 -9 30 -18 25 -20 -6 -2 -202 59
-436 135 -383 125 -433 144 -509 192 -141 89 -231 140 -254 146 -17 4 -59 -21
-180 -107 -86 -61 -154 -114 -151 -117 3 -4 27 -18 53 -32 l47 -25 0 -561 0
-560 120 57 c134 63 300 130 450 180 l101 34 23 53 c65 145 220 220 366 177
32 -9 74 -27 94 -41 20 -13 43 -24 51 -24 18 0 460 117 467 123 2 3 -17 38
-43 78 -69 107 -87 155 -88 224 -1 76 37 159 97 211 23 20 32 31 20 25 -19
-10 -26 -8 -42 8 -11 11 -33 26 -48 34 -30 16 -69 55 -66 66 2 3 1 13 -1 21
-2 8 -7 32 -11 53 -3 21 -9 36 -13 34 -4 -2 -18 8 -32 21 l-25 24 53 -26 c76
-38 64 -24 -15 19 -77 40 -65 44 -126 -44 -16 -23 -32 -41 -36 -41 -5 0 -6 23
-3 50 5 59 7 59 -102 25 -44 -14 -82 -23 -84 -20 -2 2 18 32 44 67 100 130
145 178 165 178 11 0 70 -48 142 -117 67 -65 108 -102 91 -83 -28 31 -30 39
-22 63 8 23 15 28 34 24 13 -2 24 -3 24 -2 0 11 -164 104 -172 99 -6 -4 -8 -3
-5 3 4 6 -11 22 -33 37 -58 38 -100 34 -185 -18z m-811 -328 c150 -101 236
-166 236 -179 0 -13 -56 -2 -160 31 -47 15 -87 26 -89 24 -3 -2 0 -26 6 -52
19 -80 24 -122 15 -122 -5 0 -22 17 -37 38 -35 46 -87 102 -96 102 -3 0 -35
-22 -69 -50 -34 -27 -67 -47 -72 -44 -12 8 -4 43 39 179 40 127 55 155 84 155
12 0 76 -37 143 -82z"/>
<path d="M6340 7386 c0 -2 8 -10 18 -17 15 -13 16 -12 3 4 -13 16 -21 21 -21
13z"/>
<path d="M6337 7349 c7 -7 15 -10 18 -7 3 3 -2 9 -12 12 -14 6 -15 5 -6 -5z"/>
<path d="M3580 7344 c-103 -13 -248 -42 -555 -110 -187 -41 -348 -77 -358 -80
-18 -6 -18 -30 -14 -537 3 -495 5 -538 25 -625 21 -95 56 -206 71 -231 7 -11
35 9 124 87 64 55 125 103 137 107 14 4 40 -3 77 -21 l56 -29 107 112 c118
124 120 127 120 277 l0 58 -82 -7 c-86 -7 -259 -38 -302 -55 l-24 -9 -4 137
c-2 75 -3 138 -3 139 1 1 37 -4 80 -12 44 -7 139 -15 210 -17 l130 -3 3 83 3
82 -68 0 c-37 0 -108 -7 -158 -15 -49 -8 -92 -15 -95 -15 -3 0 -5 55 -5 123
l0 123 70 -12 c39 -6 110 -15 159 -18 l89 -7 -6 88 c-4 48 -9 105 -13 126 l-7
37 113 0 113 0 -7 -38 c-3 -21 -9 -77 -12 -124 l-7 -87 79 5 c75 5 184 19 230
30 20 5 20 2 20 -124 l-1 -128 -55 13 c-30 7 -103 16 -162 20 l-108 6 0 -82 0
-81 113 0 c102 1 220 11 288 25 l25 6 0 -136 -1 -136 -25 6 c-88 23 -218 44
-297 50 l-93 7 0 -58 c0 -33 3 -83 6 -111 6 -51 10 -55 80 -113 40 -33 78 -60
86 -60 17 0 84 50 357 269 153 121 225 173 250 177 30 6 54 -3 168 -60 l133
-66 0 404 0 403 -62 26 c-152 64 -409 136 -585 162 -101 15 -351 27 -413 19z"/>
<path d="M6480 7125 c-101 -46 -148 -156 -116 -269 22 -74 174 -301 202 -301
24 0 154 193 185 274 42 113 10 228 -78 282 -46 28 -145 35 -193 14z m151
-114 c42 -42 40 -92 -5 -137 -19 -19 -44 -34 -57 -34 -36 0 -84 34 -98 69 -41
98 84 178 160 102z"/>
<path d="M7449 7078 c29 -29 65 -75 79 -103 23 -43 27 -62 27 -140 0 -61 -6
-107 -18 -142 -19 -54 -105 -194 -128 -209 -7 -4 -3 7 10 24 17 25 20 36 11
51 -5 11 -10 29 -10 40 0 12 -4 21 -10 21 -5 0 -10 8 -10 18 0 20 -29 52 -48
52 -6 0 -14 5 -17 10 -4 6 -1 9 6 8 7 -2 13 2 14 7 0 6 4 16 9 23 4 7 -16 -5
-46 -28 -69 -53 -266 -153 -561 -284 -401 -179 -691 -334 -797 -425 l-44 -38
32 -17 c38 -20 66 -69 58 -102 -10 -38 -70 -90 -133 -114 -43 -17 -83 -23
-152 -25 l-94 -2 -106 -115 c-213 -230 -332 -324 -589 -468 -62 -34 -111 -64
-109 -66 3 -3 328 163 537 276 304 163 512 250 1010 424 797 279 976 369 1135
576 158 205 203 423 123 589 -27 57 -106 136 -178 180 l-55 33 54 -54z"/>
<path d="M6821 6964 c0 -11 3 -14 6 -6 3 7 2 16 -1 19 -3 4 -6 -2 -5 -13z"/>
<path d="M5651 6503 c-103 -36 -169 -151 -158 -273 6 -69 39 -136 144 -290 86
-127 106 -140 150 -98 40 37 176 248 195 303 22 62 23 136 3 203 -41 136 -191
205 -334 155z m145 -119 c83 -39 85 -167 4 -209 -81 -42 -170 14 -170 107 0
40 21 73 64 99 38 23 58 24 102 3z"/>
<path d="M4170 6253 c-96 -76 -227 -180 -290 -230 -66 -53 -124 -93 -137 -93
-22 0 -90 49 -181 132 -48 43 -59 48 -100 48 l-47 0 -137 -142 -136 -143 -71
34 -70 34 -86 -74 c-47 -41 -98 -84 -113 -97 l-27 -22 35 -66 c110 -207 357
-423 656 -572 116 -58 337 -152 359 -152 13 0 135 98 135 109 0 5 -13 11 -29
14 -55 11 -274 98 -401 158 -136 65 -270 139 -270 149 0 3 48 14 108 23 414
67 983 241 1120 344 75 57 142 280 142 478 l0 70 -135 68 c-74 37 -139 67
-143 67 -4 0 -86 -62 -182 -137z"/>
<path d="M5398 4632 l-78 -15 -2 -221 c-2 -122 -2 -309 -1 -416 l1 -195 91 -3
91 -3 0 436 c0 342 -3 435 -12 434 -7 -1 -48 -8 -90 -17z"/>
<path d="M6109 4627 c-94 -35 -139 -101 -139 -204 l0 -61 -46 -7 c-35 -5 -44
-10 -40 -22 3 -8 6 -26 6 -39 0 -21 5 -24 35 -24 42 0 40 17 40 -275 l0 -210
93 -3 92 -3 0 246 0 245 75 0 c75 0 75 0 75 27 0 17 4 23 9 18 10 -11 241
-525 241 -537 0 -4 -14 -23 -32 -43 -34 -39 -84 -68 -135 -80 -36 -7 -38 -12
-22 -67 10 -38 10 -38 63 -38 102 0 188 64 256 191 25 47 240 598 240 615 0 2
-31 4 -69 4 l-70 0 -55 -169 c-31 -93 -56 -176 -56 -184 0 -42 -22 -19 -49 50
-17 43 -51 128 -76 188 l-44 110 -176 3 -175 2 0 61 c0 114 37 142 131 99 24
-10 47 -16 50 -12 3 4 11 26 17 50 l10 43 -36 15 c-50 22 -168 28 -213 11z"/>
<path d="M3423 4615 c-77 -33 -69 -134 15 -166 79 -30 161 58 121 133 -10 19
-66 48 -91 48 -7 -1 -27 -7 -45 -15z"/>
<path d="M5684 4621 c-12 -5 -31 -22 -43 -38 -54 -67 28 -162 115 -133 95 32
83 162 -17 175 -19 3 -44 1 -55 -4z"/>
<path d="M2892 4602 c-109 -39 -172 -120 -172 -220 0 -110 50 -169 215 -256
125 -67 147 -89 143 -145 -3 -39 -8 -49 -37 -68 -22 -15 -49 -23 -76 -23 -51
0 -157 31 -204 60 -18 12 -34 20 -36 18 -1 -2 -5 -33 -9 -71 l-7 -67 43 -19
c100 -42 251 -54 346 -26 66 20 131 70 161 124 32 58 33 151 1 215 -27 56 -67
89 -195 155 -140 73 -175 115 -144 173 13 24 67 48 111 48 30 0 138 -27 180
-44 17 -8 18 -4 34 85 6 35 4 37 -38 54 -66 28 -247 31 -316 7z"/>
<path d="M3465 4353 c-33 -8 -66 -16 -72 -19 -10 -2 -13 -67 -13 -279 l0 -275
90 0 90 0 0 295 c0 335 11 303 -95 278z"/>
<path d="M3775 4350 l-80 -17 -3 -276 -2 -277 90 0 90 0 0 204 c0 112 3 212 6
221 7 18 55 45 79 45 9 0 27 -11 40 -25 25 -24 25 -24 25 -235 l0 -210 90 0
90 0 0 204 c0 112 3 212 6 221 7 19 55 45 82 45 10 0 27 -6 38 -14 17 -13 19
-31 24 -233 l5 -218 88 -3 87 -3 3 138 c4 238 0 311 -18 359 -41 107 -167 124
-280 39 l-44 -34 -38 39 c-65 64 -139 64 -234 1 -24 -17 -45 -28 -48 -26 -2 3
-7 20 -10 38 l-6 33 -80 -16z"/>
<path d="M4735 4350 l-80 -16 -3 -392 -2 -392 95 0 96 0 -3 53 c-1 28 -1 84 0
123 l2 72 43 -15 c141 -49 295 47 328 205 16 80 6 190 -24 256 -58 126 -197
161 -316 80 -46 -31 -49 -30 -53 9 l-3 33 -80 -16z m242 -112 c38 -42 47 -71
47 -158 1 -98 -20 -168 -61 -200 -31 -24 -70 -26 -101 -4 -21 15 -22 21 -22
183 l0 169 33 16 c45 22 80 20 104 -6z"/>
<path d="M5708 4351 l-78 -16 0 -277 0 -278 90 0 90 0 0 295 c0 230 -3 295
-12 293 -7 0 -48 -8 -90 -17z"/>
<path d="M3653 3582 l-73 -14 0 -343 0 -342 72 -6 c40 -3 74 -5 75 -3 2 2 2
165 1 362 l-3 359 -72 -13z"/>
<path d="M5405 3590 c-16 -5 -47 -11 -67 -14 l-38 -7 0 -347 0 -347 75 3 75 4
0 109 c0 60 3 109 8 109 4 0 34 -50 67 -110 44 -81 65 -110 80 -111 99 -5 165
-2 165 6 0 6 -9 24 -20 40 -45 66 -150 244 -150 253 0 6 34 47 76 91 l76 81
-66 0 -65 0 -83 -97 -83 -97 -3 214 c-1 118 -6 217 -10 221 -4 3 -20 3 -37 -1z"/>
<path d="M5853 3570 c-73 -30 -42 -140 39 -140 51 0 78 24 78 70 0 62 -55 95
-117 70z"/>
<path d="M3222 3559 c-65 -11 -98 -27 -139 -71 -56 -58 -68 -129 -34 -203 24
-53 50 -75 146 -126 104 -55 135 -84 135 -124 0 -50 -30 -70 -104 -70 -46 0
-76 7 -124 29 -34 16 -64 27 -66 25 -2 -2 -6 -29 -7 -59 l-4 -55 65 -23 c53
-18 82 -22 157 -19 78 2 100 7 149 32 69 36 104 91 104 164 -1 99 -48 154
-202 232 -109 55 -135 101 -83 149 32 30 96 31 177 2 l57 -20 7 36 c3 21 8 44
10 53 3 11 -5 20 -23 28 -27 11 -138 32 -158 30 -5 -1 -34 -5 -63 -10z"/>
<path d="M4000 3361 c-125 -26 -192 -111 -194 -246 -2 -163 109 -268 266 -251
133 14 206 91 216 228 11 157 -64 254 -208 271 -25 3 -61 2 -80 -2z m80 -71
c43 -23 65 -201 37 -294 -14 -47 -55 -81 -86 -71 -36 11 -54 62 -59 163 -8
162 35 241 108 202z"/>
<path d="M4980 3364 c-38 -7 -122 -35 -152 -50 -25 -13 -26 -16 -15 -46 6 -18
13 -35 14 -37 1 -2 25 6 54 18 57 25 121 30 144 11 9 -7 15 -29 15 -51 0 -32
-4 -39 -22 -43 -13 -3 -47 -10 -76 -16 -111 -21 -162 -70 -162 -155 0 -66 31
-109 91 -125 47 -13 113 2 145 31 21 20 21 20 53 -12 29 -28 36 -31 74 -25 67
10 123 61 79 73 -28 7 -32 29 -32 183 0 147 -11 186 -60 221 -26 19 -106 31
-150 23z m60 -320 c0 -52 -4 -70 -17 -80 -43 -32 -93 -1 -93 59 0 37 49 87 84
87 25 0 26 -2 26 -66z"/>
<path d="M6219 3360 c-19 -5 -61 -19 -93 -31 l-58 -21 7 -37 c4 -20 8 -38 11
-40 2 -2 26 6 54 18 61 26 124 31 144 11 23 -24 29 -65 12 -82 -8 -8 -37 -18
-65 -22 -70 -9 -132 -38 -164 -76 -38 -45 -39 -125 -1 -169 46 -56 137 -63
205 -17 l33 23 22 -26 c18 -21 31 -26 67 -26 69 0 141 64 88 78 -18 4 -19 16
-23 163 -4 177 -13 211 -69 240 -38 19 -121 26 -170 14z m85 -287 c10 -63 7
-81 -16 -103 -30 -27 -64 -26 -84 5 -28 43 -4 109 46 128 36 13 47 7 54 -30z"/>
<path d="M4368 3350 l-76 -5 64 -175 c36 -96 75 -202 87 -235 l23 -60 64 0 65
0 86 235 87 235 -51 3 c-32 2 -53 -1 -58 -9 -4 -7 -27 -77 -50 -155 -24 -79
-45 -141 -47 -139 -3 2 -26 70 -53 151 -26 81 -52 150 -56 153 -4 3 -42 4 -85
1z"/>
<path d="M5915 3355 c-5 -2 -29 -9 -52 -15 l-43 -11 0 -224 0 -223 71 -4 c39
-2 73 -1 75 1 2 2 4 112 4 243 l0 238 -22 -1 c-13 0 -27 -2 -33 -4z"/>
</g>
</svg>
