<svg version="1.1" xmlns="http://www.w3.org/2000/svg" style="display: block;" viewBox="0 0 2048 2048" width="1024" height="1024" preserveAspectRatio="none">
<defs>
	<linearGradient id="Gradient1" gradientUnits="userSpaceOnUse" x1="1212.65" y1="641.594" x2="1214.92" y2="637.226">
		<stop class="stop0" offset="0" stop-opacity="0" stop-color="rgb(247,255,255)"/>
		<stop class="stop1" offset="1" stop-opacity="0.0313725" stop-color="rgb(244,253,254)"/>
	</linearGradient>
</defs>
<path transform="translate(0,0)" fill="rgb(7,71,149)" d="M 1351.5 584.103 C 1337.95 556.856 1332.37 536.315 1342.19 506.323 C 1358.16 457.599 1409.35 429.845 1458.32 446.934 C 1508.51 464.519 1531.35 518.532 1513.01 567.596 C 1505.27 588.292 1491.89 602.336 1479.21 619.705 C 1502.92 634.952 1525.89 651.812 1531.67 680.813 C 1538.06 712.836 1526.63 744.589 1509.19 771.01 C 1498.53 787.357 1485.1 801.726 1469.52 813.477 C 1427.3 844.724 1370.19 863.213 1321.26 880.425 C 1242.55 908.117 1163.5 933.382 1089.43 972.561 C 1084.67 975.078 1078.09 978.347 1073.18 980.411 C 1073.63 978.161 1073.16 979.254 1075.67 977.458 C 1077.32 973.301 1075.34 977.936 1073.4 973.054 L 1078.7 961.273 L 1077.8 961.157 L 1073.66 964.987 C 1074.19 967.235 1074.11 966.47 1073.95 968.936 L 1072.63 969.711 L 1070.38 967.485 C 1068.87 968.586 1067.54 969.794 1066.2 971.102 L 1064.43 970.6 C 1066.68 968.108 1070.99 964.182 1073.55 961.843 C 1092.57 944.464 1108.68 924.103 1126.61 905.837 C 1152.18 908.134 1168.32 904.954 1190.76 891.78 C 1172.4 897.467 1151.62 901.247 1132.76 896.28 C 1109.75 890.218 1107.36 874 1130.72 865.17 C 1120.65 849.278 1109.07 836.645 1101.92 818.637 C 1075.4 751.842 1167.73 710.367 1196.62 775.604 C 1208.57 802.565 1191.28 833.903 1176.16 854.709 C 1172.23 860.116 1166.96 868.075 1164.13 874.609 C 1172.12 868.53 1181.04 858.272 1189.09 851.192 C 1204.76 837.418 1219.04 828.437 1236.86 818.353 C 1259.32 805.537 1282.3 793.657 1305.75 782.745 C 1349.01 762.906 1445.72 726.205 1476.28 694.088 C 1483.66 686.329 1490.15 676.572 1489.62 665.406 C 1488.96 651.805 1478.56 641.882 1469.37 633.09 L 1456.47 646.505 C 1456.82 647.927 1457.14 649.357 1457.43 650.794 C 1458.58 656.515 1459.12 660.373 1455.67 665.546 C 1441.74 686.466 1370.9 706.74 1346.94 710.568 L 1345.94 709.594 C 1343.62 707.105 1343.01 707.005 1340.05 705.405 C 1335.24 711.722 1329.18 719.242 1324.96 725.815 C 1321.35 731.968 1317.16 743.737 1309.65 736.841 C 1306.28 736.005 1301.2 734.83 1299.18 732.061 L 1299.26 730.728 L 1289.57 722.604 C 1269.59 728.359 1249.56 733.941 1229.48 739.35 C 1218.64 742.298 1201.16 747.532 1190.44 748.453 C 1185.5 744.045 1179.97 740.361 1173.99 737.512 C 1145.69 724.275 1111.79 735.813 1095.89 762.143 C 1092.36 767.999 1089.66 774.559 1086.91 780.822 C 1052.69 793.071 1018.64 803.733 985.747 819.525 C 974.408 824.969 963.002 830.563 951.505 835.639 C 956.516 766.774 955.434 680.496 952.844 610.845 C 945.494 606.304 938.276 602.954 930.417 599.433 C 947.138 586.786 976.81 564.004 995.95 553.976 C 999.828 551.944 1010.35 558.931 1014.53 561.439 C 1018.44 563.758 1028.3 569.92 1031.96 571.495 C 1062.68 597.444 1114.38 608.439 1152.38 621.927 C 1165.82 626.697 1193.59 636.647 1206.99 639.434 C 1218.75 643.526 1230.53 647.553 1242.34 651.516 C 1239.33 648.853 1213.3 636.94 1208 634.671 C 1174.11 617.109 1117.81 591.103 1082.54 580.323 C 1125.23 559.707 1164.8 533.095 1206.71 511.088 C 1209.99 509.366 1215.75 509.914 1219.14 511.2 C 1240.16 520.899 1261.73 539.692 1281.58 551.351 C 1301.57 563.097 1330.17 576.111 1351.5 584.103 z M 1415.8 540.218 C 1399.33 523.092 1386.87 502.215 1369.99 533.829 C 1375.21 543.039 1382.86 549.448 1390.56 556.726 C 1396.54 562.502 1409.52 577.205 1416.33 578.913 C 1424.34 577.768 1430.39 571.823 1435.7 566.075 C 1453.3 547.034 1474.33 528.877 1491.09 509.265 C 1487.19 501.137 1479.26 487.628 1469.22 487.617 C 1450.84 504.067 1433.79 524.106 1415.8 540.218 z M 1032.2 649.247 C 1031.08 641.586 1030.04 633.816 1028.48 626.241 C 1027.2 620.687 1025.8 615.084 1024.95 609.46 C 1042.15 615.354 1061.24 622.726 1079.43 623.479 C 1066.24 611.6 1014.93 576.422 998.823 568.674 C 989.982 579.146 972.725 624.19 975.834 635.037 C 984.096 637.662 993.995 619.194 1005.02 618.777 C 1013.34 622.48 1024.33 641.326 1032.2 649.247 z M 1143.41 769.727 C 1131.08 772.894 1123.58 785.398 1126.61 797.771 C 1129.63 810.144 1142.05 817.78 1154.46 814.898 C 1162.61 813.004 1169.12 806.873 1171.49 798.846 C 1173.87 790.819 1171.74 782.135 1165.93 776.109 C 1160.12 770.083 1151.52 767.646 1143.41 769.727 z M 1214.48 521.597 C 1202.38 531.733 1186.06 557.604 1174.08 571.223 C 1188.13 566.047 1199.89 562.405 1214.49 559.126 C 1213.71 567.41 1213.05 576.171 1211.64 584.331 C 1217.11 576.65 1220.41 571.201 1225.13 562.982 L 1230.1 555.874 C 1245.18 564.136 1258.17 571.231 1273.7 578.481 C 1262.85 565.627 1228.44 527.55 1214.48 521.597 z"/>
<path transform="translate(0,0)" fill="rgb(227,34,36)" d="M 1309.65 736.841 C 1293.89 710.258 1257.89 679.491 1273.5 644.84 C 1278.38 634.048 1287.4 625.674 1298.52 621.605 C 1309.22 617.675 1321.06 618.278 1331.3 623.276 C 1342.51 628.784 1349.15 637.928 1353.08 649.45 C 1360 669.703 1349.41 686.327 1340.32 703.427 C 1340.23 704.086 1340.14 704.746 1340.05 705.405 C 1335.24 711.722 1329.18 719.242 1324.96 725.815 C 1321.35 731.968 1317.16 743.737 1309.65 736.841 z"/>
<path transform="translate(0,0)" fill="rgb(254,254,254)" d="M 1306.61 640.74 C 1313.38 638.564 1320.8 640.242 1325.99 645.119 C 1331.17 649.997 1333.29 657.305 1331.52 664.199 C 1329.76 671.093 1324.39 676.484 1317.5 678.275 C 1307.26 680.937 1296.76 674.967 1293.81 664.804 C 1290.86 654.642 1296.53 643.976 1306.61 640.74 z"/>
<path transform="translate(0,0)" fill="rgb(254,254,254)" d="M 1289.57 722.604 C 1272.64 700.596 1253.94 671.563 1265.58 643.1 C 1270.89 630.261 1281.16 620.106 1294.05 614.931 C 1306.94 609.689 1321.08 610.342 1333.72 615.971 C 1346.34 621.495 1356.01 632.109 1360.35 645.177 C 1369.67 672.359 1356.9 687.593 1345.94 709.594 C 1343.62 707.105 1343.01 707.005 1340.05 705.405 C 1340.14 704.746 1340.23 704.086 1340.32 703.427 C 1349.41 686.327 1360 669.703 1353.08 649.45 C 1349.15 637.928 1342.51 628.784 1331.3 623.276 C 1321.06 618.278 1309.22 617.675 1298.52 621.605 C 1287.4 625.674 1278.38 634.048 1273.5 644.84 C 1257.89 679.491 1293.89 710.258 1309.65 736.841 C 1306.28 736.005 1301.2 734.83 1299.18 732.061 L 1299.26 730.728 L 1289.57 722.604 z"/>
<path transform="translate(0,0)" fill="rgb(227,34,36)" d="M 98.0267 91.3586 C 109.536 92.3518 126.138 91.9004 137.904 91.9142 L 205.498 92.0065 L 418.941 91.8703 C 419.502 111.812 421.437 134.291 422.385 154.638 C 423.684 184.835 424.407 215.054 424.552 245.279 C 424.802 270.414 425.423 299.224 421.067 323.937 C 417.794 342.941 411.463 361.289 402.321 378.267 L 396.96 388.124 C 372.602 433.564 331.435 464.71 286.883 488.97 C 280.021 492.706 265.859 499.86 258.995 502.241 C 220.09 487.654 177.15 457.409 148.982 427.032 C 139.451 416.754 134.629 408.497 126.638 398.665 C 124.704 396.421 123.284 393.351 121.868 390.695 C 93.0323 343.566 92.8067 306.421 92.8702 253.815 C 92.6568 221.409 93.3372 189.003 94.9108 156.634 C 95.8675 135.267 97.893 112.571 98.0267 91.3586 z"/>
<path transform="translate(0,0)" fill="rgb(7,71,149)" d="M 165.064 365.271 C 170.752 367.368 190.591 378.703 195.096 376.172 C 214.77 365.45 232.349 332.955 251.964 323.467 C 270.481 314.51 295.918 351.623 315.378 358.779 C 324.665 355.467 332.417 349.774 340.723 344.376 C 358.777 357.523 379.116 374.211 396.96 388.124 C 372.602 433.564 331.435 464.71 286.883 488.97 C 280.021 492.706 265.859 499.86 258.995 502.241 C 220.09 487.654 177.15 457.409 148.982 427.032 C 139.451 416.754 134.629 408.497 126.638 398.665 C 139.27 388.437 152.738 376.118 165.064 365.271 z"/>
<path transform="translate(0,0)" fill="rgb(254,254,254)" d="M 235.897 115.022 C 251.093 115.571 266.303 115.628 281.502 115.193 C 276.623 135.868 274.649 152.594 273.418 173.528 C 298.527 172.907 315.649 170.459 340.075 165.671 C 339.608 181.064 339.294 194.801 340.735 210.245 C 315.243 204.389 299.532 203.21 273.734 201.953 C 273.211 215.529 273.637 231.22 273.718 244.966 C 304.429 245.398 329.908 242.077 359.9 236.403 C 358.681 254.45 358.873 265.398 360.215 283.394 C 327.833 274.896 307.108 274.715 273.849 273.602 C 273.63 287.157 273.845 300.714 274.493 314.255 L 314.575 346.986 C 322.391 343.297 333.374 336.209 341.027 331.58 C 360.733 345.681 382.563 363.384 402.321 378.267 L 396.96 388.124 C 379.116 374.211 358.777 357.523 340.723 344.376 C 332.417 349.774 324.665 355.467 315.378 358.779 C 295.918 351.623 270.481 314.51 251.964 323.467 C 232.349 332.955 214.77 365.45 195.096 376.172 C 190.591 378.703 170.752 367.368 165.064 365.271 C 152.738 376.118 139.27 388.437 126.638 398.665 C 124.704 396.421 123.284 393.351 121.868 390.695 C 131.318 381.948 156.853 358.701 166.257 353.223 C 175.964 354.853 184.668 360.46 193.223 365.312 C 208.861 351.259 227.621 331.016 242.876 315.544 C 243.425 301.184 243.787 288.16 243.619 273.807 C 211.292 274.214 189.169 275.569 157.71 283.269 C 158.892 264.709 158.799 254.76 157.766 236.526 C 189.069 243.423 212.017 244.09 243.697 244.977 L 243.774 202.124 C 219.151 202.784 200.601 204.962 176.66 210.486 C 177.584 193.219 177.963 182.486 176.921 165.583 C 201.023 170.553 219.322 172.401 243.945 173.398 C 242.803 152.521 239.821 135.458 235.897 115.022 z"/>
<path transform="translate(0,0)" fill="rgb(227,34,36)" d="M 718.66 579.402 C 721.729 578.722 737.284 578.939 741.301 578.763 C 792.395 576.523 882.437 597.366 928.796 620.616 C 930.371 673.421 928.65 729.554 928.018 782.503 C 915.508 777.629 876.299 752.569 866.401 757.851 C 833.723 775.29 804.437 805.259 774.328 827.26 C 765.512 833.701 756.566 842.849 746.511 847.164 C 734.634 838.565 724.494 831.169 713.22 821.813 C 711.778 808.129 711.749 791.742 710.914 777.587 C 743.658 778.418 764.3 782.316 795.946 789.529 C 792.403 768.657 793.736 757.462 795.147 736.592 C 773.504 741.807 732.196 743.915 710.133 744.137 L 709.784 708.967 C 727.837 708.897 759.386 712.479 776.706 717.124 C 773.032 696.279 773.431 687.319 776.267 666.443 C 750.901 671.216 735.136 672.702 709.452 674.168 C 710.031 655.772 711.191 642.758 713.528 624.499 L 708.004 623.977 L 670.721 623.919 C 671.834 640.476 673.699 657.468 675.117 674.08 C 655.928 674.141 628.808 670.863 610.254 666.628 C 612.179 684.749 613.709 697.85 610.643 716.028 C 632.166 711.484 654.082 709.052 676.078 708.767 C 675.574 719.622 675.904 733.499 675.874 744.582 C 647.703 744.005 619.003 742.688 591.395 736.478 C 592.818 753.003 593.499 775.324 591.257 791.415 C 612.583 783.988 652.117 777.962 674.94 777.827 C 674.515 786.849 673.868 817.089 670.124 822.355 C 661.284 834.789 638.877 858.565 627.103 868.195 C 601.415 849.654 600.685 856.278 577.691 875.964 C 568.766 883.605 560.097 891.941 551.777 900.301 C 528.03 850.239 529.204 798.937 529.121 745.078 C 529.006 702.615 529.229 660.153 529.792 617.694 C 545.543 615.278 563.668 609.924 579.425 606.514 C 625.107 596.627 672.075 582.928 718.66 579.402 z"/>
<path transform="translate(0,0)" fill="rgb(7,71,149)" d="M 869.497 769.846 C 875.225 770.181 918.103 791.904 927.057 796.219 C 926.931 824.768 922.384 874.62 906.316 898.075 C 887.156 926.042 764.673 956.898 729.683 964.702 C 703.308 970.584 676.544 974.873 649.944 979.617 C 705.805 1011.54 732.354 1022.67 793.114 1043.55 C 786.567 1050.36 775.069 1059.66 767.487 1066.92 C 751.816 1061.75 736.425 1055.76 721.376 1048.99 C 654.763 1019.48 587.032 976.697 555.107 908.289 C 570.568 895.472 585.832 882.419 600.894 869.137 C 609.124 872.417 618.677 878.283 628.047 882.161 C 643.856 867.856 668.122 837.507 682.719 827.391 C 703.364 813.083 723.838 854.503 749.876 861.865 L 751.242 862.237 C 759.698 856.754 776.366 842.539 784.626 835.877 C 803.262 820.831 822.028 805.945 840.919 791.221 C 848.987 784.89 860.945 774.545 869.497 769.846 z"/>
<path transform="translate(0,0)" fill="rgb(7,71,149)" d="M 1231.77 1120.33 C 1246.5 1118.37 1258.52 1122.04 1271.8 1127.88 C 1269.71 1134.94 1267.83 1142.06 1266.16 1149.23 C 1230.41 1129.83 1229.43 1142.82 1230.1 1176.54 C 1253.02 1175.78 1276.78 1178.42 1299.86 1176.1 C 1310.05 1197.77 1322.11 1230.89 1331.3 1253.98 C 1337.65 1228.56 1348.14 1201.47 1355.85 1176.09 C 1365.13 1175.9 1375.24 1176.23 1384.58 1176.35 C 1380.43 1190.87 1371.68 1213.31 1365.79 1227.32 C 1351.72 1260.83 1339.55 1315.1 1305.82 1333.02 C 1293.93 1338.23 1286.17 1338.11 1273.7 1337.55 L 1268.8 1318.99 C 1288.8 1313.5 1299.4 1310.13 1310.71 1291.65 C 1294.03 1258.65 1275.68 1214.76 1260.37 1180.19 L 1259.96 1193.63 C 1250.21 1194.06 1239.91 1193.93 1230.11 1193.97 C 1229.87 1224.22 1228.93 1261.73 1230.45 1291.41 C 1217.94 1291.29 1205.43 1291.37 1192.92 1291.66 C 1193.51 1259.14 1193.1 1225.69 1193.02 1193.15 L 1176.76 1193.1 C 1176.34 1186.59 1176.43 1183.5 1176.86 1177.01 L 1192.99 1176.9 C 1194.71 1145.98 1193.5 1126.19 1231.77 1120.33 z"/>
<path transform="translate(0,0)" fill="rgb(7,71,149)" d="M 993.468 1174.31 C 1071.7 1168.27 1057.49 1324.57 967.02 1288.15 L 966.957 1333.25 C 966.905 1335.74 967.026 1334.94 966.294 1337.26 C 960.418 1339.68 938.376 1338.32 930.98 1338.07 C 929.944 1322.01 930.563 1299.03 930.529 1282.39 L 930.122 1180.43 C 941.019 1178.83 952.991 1176.5 963.848 1174.5 C 964.67 1179.62 964.859 1184.69 965.177 1189.87 C 974.997 1181.74 981.029 1177.68 993.468 1174.31 z M 967.725 1270.62 C 975.67 1275.05 977.094 1276.02 986.186 1275.32 C 1011.01 1263.77 1010.59 1219.48 996.704 1200.06 C 992.142 1197.46 989.285 1195.65 983.898 1196 C 977.193 1197.96 973.645 1199.2 967.789 1203.49 C 967.553 1222.37 966.557 1252.54 967.725 1270.62 z"/>
<path transform="translate(0,0)" fill="rgb(7,71,149)" d="M 771.031 1174.33 C 773.812 1177.42 773.332 1186.89 773.508 1191.8 C 796.973 1171.34 818.844 1164.44 838.727 1193.24 C 839.683 1192.16 840.65 1191.1 841.627 1190.04 C 863.361 1166.54 901.773 1169.01 905.705 1201.3 C 908.953 1227.97 907.121 1263.75 907.046 1291.02 L 871.04 1291.21 C 869.985 1275.77 873.572 1211.51 866.865 1202.61 C 864.846 1199.93 861.776 1198.48 858.482 1198.15 C 853.678 1197.67 848.158 1199.39 844.598 1202.68 C 839.52 1207.38 840.21 1214.97 840.068 1221.29 L 840.224 1291.03 L 804.509 1291.22 C 804.08 1269.01 804.847 1246.78 804.316 1224.58 C 804.155 1217.87 804.581 1207.22 799.104 1202.47 C 796.413 1200.13 792.537 1198.64 788.974 1198.99 C 784.829 1199.39 779.604 1201.84 777.057 1205.22 C 772.049 1211.87 773.947 1278.79 774.892 1291.09 C 762.753 1290.88 750.612 1290.86 738.473 1291.04 L 738.018 1181 C 749.076 1179.05 760.084 1176.83 771.031 1174.33 z"/>
<path transform="translate(0,0)" fill="rgb(7,71,149)" d="M 597.511 1123.35 C 613.217 1121.55 636.293 1125.26 650.358 1132.7 C 648.64 1140.95 647.339 1150.72 646.062 1159.1 C 633.952 1154.4 586.059 1133.6 581.551 1165.53 C 580.129 1175.6 605.979 1189.13 615.521 1193.08 C 649.817 1207.26 671.374 1239.65 646.687 1274.43 C 635.641 1289.68 612.423 1292.55 594.152 1294.12 C 573.049 1293.07 561.812 1290.52 542.846 1282.28 C 542.823 1274 544.409 1262.22 545.301 1253.74 C 560.667 1261.75 574.764 1270.54 592.969 1269.97 C 604.938 1269.59 620.321 1263.01 617.245 1248.49 C 613.544 1231.03 582.781 1223.23 569.421 1213.15 C 558.289 1205.57 546.175 1194.42 544.423 1180 C 539.99 1143.53 566.975 1127.65 597.511 1123.35 z"/>
<path transform="translate(0,0)" fill="rgb(238,156,56)" d="M 948.458 500.402 C 1000.62 497.447 1039.35 523.907 1061.67 570.476 C 1039.83 559.631 1018.88 543.309 995.592 535.265 C 985.436 539.593 971.312 549.72 961.787 556.114 C 945.757 567.048 926.502 580.213 911.477 592.116 C 892.462 585.095 872.597 577.397 852.782 573.391 C 869.128 531.248 903.161 504.511 948.458 500.402 z"/>
<path transform="translate(0,0)" fill="rgb(227,34,36)" d="M 804.646 1374.59 C 832.58 1371.89 857.417 1392.34 860.136 1420.27 C 862.856 1448.2 842.429 1473.05 814.499 1475.79 C 786.54 1478.54 761.655 1458.08 758.933 1430.12 C 756.21 1402.16 776.682 1377.29 804.646 1374.59 z M 810.756 1463.39 C 817.041 1460.54 820.222 1457.5 822.435 1450.77 C 827.417 1435.61 829.178 1392.71 809.646 1387.76 C 802.479 1391.11 799.641 1394.23 796.845 1401.78 C 790.768 1418.2 789.899 1457.74 810.756 1463.39 z"/>
<path transform="translate(0,0)" fill="rgb(227,34,36)" d="M 651.616 1334.39 C 668.402 1333.19 679.041 1335.36 694.128 1342.02 C 692.697 1349.95 691.461 1356.71 690.694 1364.71 C 676.88 1358.06 653.453 1348.92 641.312 1362.02 C 630.661 1374.99 652.893 1386.03 662.088 1390.79 C 679.114 1399.6 700.163 1409.99 700.531 1432.36 C 701.104 1467.23 674.363 1475.78 645.249 1476.14 C 627.884 1475.57 620.274 1473.67 604.029 1467.23 C 604.487 1458 605.331 1450.98 606.727 1441.88 C 618.866 1448.93 634.418 1456.57 648.958 1455.67 C 656.069 1455.23 669.199 1448.08 666.247 1439.72 C 659.725 1423.83 638.092 1418.19 624.548 1408.52 C 604.248 1394.04 597.787 1371.49 614.317 1351 C 623.796 1339.24 637.018 1335.92 651.616 1334.39 z"/>
<path transform="translate(0,0)" fill="rgb(227,34,36)" d="M 1083.41 1329.17 C 1086.24 1328.72 1086.19 1328.52 1088.84 1329.44 C 1089.5 1333.95 1089.55 1354.21 1089.46 1359.48 C 1089.14 1376.67 1091.01 1402.09 1089.14 1418.66 C 1099.9 1405.57 1112.38 1390.24 1123.75 1377.95 C 1132.19 1377.31 1143.31 1377.39 1152.09 1377.08 C 1140.98 1388.55 1130.02 1400.17 1119.23 1411.94 C 1130.42 1432.92 1144.68 1452.1 1155.71 1472.9 C 1143.77 1473.29 1129.78 1473.85 1118.01 1473.02 C 1108.59 1457.62 1098.99 1440.98 1089.99 1425.33 L 1089.98 1473.04 C 1080.06 1473.57 1069.62 1473.57 1059.65 1473.72 C 1060.24 1458.81 1059.35 1437.67 1059.28 1422.1 L 1059.31 1333.53 C 1068.17 1332.52 1074.64 1331.1 1083.41 1329.17 z"/>
<path transform="translate(0,0)" fill="rgb(227,34,36)" d="M 1251.74 1374.37 C 1253.85 1374.23 1255.96 1374.13 1258.08 1374.07 C 1302.65 1372.82 1291.71 1426.12 1291.98 1457.3 C 1295.06 1458.92 1297.19 1459.59 1298.94 1462.55 C 1299.94 1476 1277.08 1477.69 1268.1 1473.62 C 1263.84 1471.69 1262.98 1467.38 1261.65 1463.27 C 1248.14 1475.75 1234.92 1479.8 1217.49 1471.83 C 1211.82 1467.47 1208.21 1462.29 1206.99 1455.16 C 1201.34 1422.03 1237.15 1417.61 1260.08 1413.96 C 1261.6 1380.57 1234.75 1395.75 1216.32 1404.12 L 1213.47 1387.47 C 1227.16 1379.46 1236.19 1376.27 1251.74 1374.37 z M 1242.15 1456.18 C 1264.66 1462.94 1260.59 1440.5 1259.81 1426.34 C 1243.77 1429.59 1230.99 1439.11 1242.15 1456.18 z"/>
<path transform="translate(0,0)" fill="rgb(227,34,36)" d="M 993.217 1375.29 C 1051.86 1369.1 1038.5 1413.53 1039 1456.41 C 1044.03 1459.02 1047.7 1459.32 1047.91 1465.03 C 1046.11 1468.66 1043.91 1471.03 1040.1 1472.48 C 1026.26 1477.74 1015.12 1477.8 1009.32 1463.49 C 995.48 1474.96 987.796 1478.43 969.488 1473.3 C 962.391 1469.25 957.059 1464.78 955.489 1456.27 C 949.215 1422.26 983.423 1417.08 1008.13 1413.21 C 1008.16 1409.25 1008.39 1404.36 1006.73 1400.71 C 1005.35 1397.62 1002.72 1395.26 999.508 1394.21 C 989.671 1391.02 973.029 1399.53 964.233 1403.84 L 960.441 1386.33 C 973.001 1380.67 979.816 1378.24 993.217 1375.29 z M 990.766 1456.2 C 999.947 1458.76 1006.4 1457.07 1008.13 1446.74 C 1008.75 1443.03 1008.43 1428.99 1007.52 1425.26 C 991.879 1429.58 977.767 1439.03 990.766 1456.2 z"/>
<path transform="translate(0,0)" fill="rgb(7,71,149)" d="M 1095.06 1118.28 L 1099.56 1117.98 C 1101.33 1120.52 1100.27 1154.27 1100.32 1160.92 C 1100.63 1204.15 1099.2 1247.86 1100.78 1291.05 L 1070.75 1290.92 C 1067.87 1291.06 1066.16 1291.5 1063.8 1289.93 C 1062.82 1286.84 1063.09 1254.4 1063.07 1248.2 C 1062.8 1207.27 1062.75 1166.34 1062.94 1125.41 C 1073.26 1122.8 1084.58 1120.52 1095.06 1118.28 z"/>
<path transform="translate(0,0)" fill="rgb(227,34,36)" d="M 931.875 1376.91 L 953.961 1378.12 C 949.147 1392.73 943.357 1407.75 937.997 1422.23 C 931.504 1438.24 925.543 1456.69 919.869 1473.15 C 911.243 1473.72 901.125 1473.52 892.371 1473.55 C 880.804 1441.81 869.399 1410 858.155 1378.14 C 866.541 1378.19 874.925 1377.95 883.295 1377.42 C 885.85 1376.92 889.211 1376.79 891.629 1377.88 C 894.817 1384.36 897.944 1395.89 900.215 1403.07 L 912.288 1439.94 C 919.409 1420.39 925.828 1397.06 931.875 1376.91 z"/>
<path transform="translate(0,0)" fill="rgb(227,34,36)" d="M 745.317 1328.41 L 746.012 1328.59 C 747.571 1331.98 746.933 1457.12 746.927 1473.07 C 737.232 1473.16 727.537 1473.18 717.843 1473.12 L 716.882 1472.96 C 714.792 1469.94 716.144 1348.01 716.456 1333.68 C 725.12 1332.82 736.151 1329.96 745.317 1328.41 z"/>
<path transform="translate(0,0)" fill="rgb(7,71,149)" d="M 1161.49 1173.29 L 1162.35 1173.33 C 1163.6 1175.84 1162.96 1279.73 1162.96 1291.18 L 1128 1291.16 C 1125.38 1287.34 1126.18 1193.94 1126.14 1180.64 C 1137.63 1178.08 1149.84 1175.8 1161.49 1173.29 z"/>
<path transform="translate(0,0)" fill="rgb(7,71,149)" d="M 710.271 1173.27 C 710.353 1173.34 710.449 1173.39 710.517 1173.46 C 713.146 1176.48 711.971 1280.38 712.01 1291.11 C 700.497 1291.5 687.705 1291.29 676.096 1291.32 C 675.433 1277.79 676.004 1257.93 675.991 1243.97 L 675.432 1181.58 C 688.346 1179.64 697.829 1176.87 710.271 1173.27 z"/>
<path transform="translate(0,0)" fill="rgb(227,34,36)" d="M 1192.91 1375.59 C 1195.16 1381.46 1194.06 1460.83 1194.04 1473.07 L 1164.28 1473 C 1162.36 1469.63 1163.05 1390.67 1162.95 1381.12 C 1173.21 1379.02 1182.52 1377.19 1192.91 1375.59 z"/>
<path transform="translate(0,0)" fill="rgb(7,71,149)" d="M 919.353 930.795 C 922.142 930.966 944.38 940.803 949.073 942.561 C 919.093 961.831 896.724 973.992 864.047 988.113 C 857.013 984.957 839.929 972.738 833.651 967.909 C 862.146 959.25 894.016 946.191 919.353 930.795 z"/>
<path transform="translate(0,0)" fill="rgb(7,71,149)" d="M 812.136 974.319 C 820.556 972.83 837.735 990.033 844.376 995.543 C 826.612 1002.1 790.78 1009.41 771.413 1013.79 L 760.351 1015.56 C 755.176 1006.89 747.127 998.104 741.263 988.773 C 765.565 985.923 788.391 979.39 812.136 974.319 z"/>
<path transform="translate(0,0)" fill="rgb(7,71,149)" d="M 1017.66 865.864 C 1021.59 867.2 1028.94 870.894 1032.99 872.798 C 1011.02 891.806 988.852 909.107 967.644 929.382 L 957.373 926.078 C 951.806 924.357 944.646 921.424 939.076 919.307 C 965.084 904.539 991.855 881.808 1017.66 865.864 z"/>
<path transform="translate(0,0)" fill="rgb(7,71,149)" d="M 1137.81 1123.25 C 1151.95 1122.07 1168.29 1125.78 1164.21 1145.77 C 1162.99 1151.77 1156.15 1155.93 1150.9 1158.64 C 1123.78 1161.59 1113.37 1134.57 1137.81 1123.25 z"/>
<path transform="translate(0,0)" fill="rgb(7,71,149)" d="M 688.032 1123.23 C 716.071 1120.87 724.2 1147.19 700.274 1158.85 C 672.64 1163.04 662.682 1133.6 688.032 1123.23 z"/>
<path transform="translate(0,0)" fill="rgb(7,71,149)" d="M 1324.96 725.815 C 1334.05 726.383 1346 727.805 1349.87 737.465 C 1347.87 756.173 1282.87 759.267 1285.82 734.93 C 1289.38 729.201 1293.58 729.683 1299.18 732.061 C 1301.2 734.83 1306.28 736.005 1309.65 736.841 C 1317.16 743.737 1321.35 731.968 1324.96 725.815 z"/>
<path transform="translate(0,0)" fill="rgb(7,71,149)" d="M 1064.43 970.6 L 1066.2 971.102 C 1067.54 969.794 1068.87 968.586 1070.38 967.485 L 1072.63 969.711 L 1073.95 968.936 C 1074.11 966.47 1074.19 967.235 1073.66 964.987 L 1077.8 961.157 L 1078.7 961.273 L 1073.4 973.054 C 1075.34 977.936 1077.32 973.301 1075.67 977.458 C 1073.16 979.254 1073.63 978.161 1073.18 980.411 C 1063.56 988.362 946.128 1048.9 934.072 1051.86 L 933.342 1050.91 C 978.315 1030.81 1026.98 1002.62 1064.43 970.6 z"/>
<path transform="translate(0,0)" fill="rgb(227,34,36)" d="M 1172.7 1332.22 C 1181.02 1331.67 1188.43 1331.81 1193.67 1339.49 C 1195.78 1342.64 1196.41 1346.56 1195.39 1350.23 C 1193.63 1356.76 1188.91 1359.72 1183.37 1362.67 C 1163.04 1365.71 1151.4 1343.53 1172.7 1332.22 z"/>
<path transform="translate(0,0)" fill="rgb(7,71,149)" d="M 1087.97 823.845 C 1091.05 825.908 1092.83 829.632 1094.82 832.883 C 1082.62 839.879 1071.3 847.543 1059.32 854.807 C 1053.76 858.18 1052.65 859.464 1046.92 858.007 L 1035.72 854.019 C 1046.49 846.293 1075.62 830.484 1087.97 823.845 z"/>
<path transform="translate(0,0)" fill="rgb(238,156,56)" d="M 795.32 467.828 C 798.325 468.066 801.324 468.92 803.604 471.054 C 819.817 486.228 836.791 501.286 851.76 517.665 C 853.785 519.882 852.773 521.794 852.204 524.271 C 841.081 521.154 810.214 487.678 799.699 479.296 C 795.809 476.195 792.74 472.681 795.32 467.828 z"/>
<path transform="translate(0,0)" fill="rgb(238,156,56)" d="M 1112.36 472.78 C 1115.15 472.88 1114.96 472.8 1117.26 474.388 L 1117.58 476.232 C 1114.41 482.768 1072.46 518.312 1064.55 524.402 L 1061.53 524.821 C 1059.58 522.826 1060.23 524.047 1060.26 520.721 C 1064.45 512.605 1103 480.07 1112.36 472.78 z"/>
<path transform="translate(0,0)" fill="rgb(238,156,56)" d="M 869.649 418.289 C 870.744 418.609 871.584 418.788 872.593 419.418 C 877.139 422.258 898.52 475.359 900.766 483.595 C 901.626 486.745 901.286 487.387 899.605 490.173 C 891.85 485.942 875.346 442.317 870.235 432.006 C 867.619 426.729 866.259 423.188 869.649 418.289 z"/>
<path transform="translate(0,0)" fill="rgb(238,156,56)" d="M 1041.44 418.174 C 1044.99 419.283 1045.61 419.237 1047.05 422.213 C 1046.17 429.879 1022.46 479.463 1017.67 489.627 C 1014.14 489.088 1015.66 489.79 1012.95 487.417 C 1012 481.531 1036.99 427.131 1041.44 418.174 z"/>
<path transform="translate(0,0)" fill="rgb(238,156,56)" d="M 953.766 400.16 L 959.114 401.164 C 961.902 404.577 960.045 467.186 959.899 476.729 C 957.817 476.74 956.875 476.626 954.805 476.424 C 951.175 471.98 953.27 410.471 953.766 400.16 z"/>
<path transform="translate(0,0)" fill="rgb(7,71,149)" d="M 1270.13 754.237 C 1274.29 755.652 1273.15 754.381 1275.09 757.209 C 1272.28 760.885 1230.43 775.22 1223.26 777.447 C 1220.91 775.887 1218.38 774.712 1217.32 772.259 C 1234.8 765.715 1252.05 758.96 1270.13 754.237 z"/>
<path transform="translate(0,0)" fill="rgb(238,156,56)" d="M 751.036 546.8 C 759.433 546.794 807.339 560.291 812.311 564.995 C 800.811 565.545 765.648 558.567 754.151 552.519 C 751.168 550.949 751.533 549.603 751.036 546.8 z"/>
<path transform="translate(0,0)" fill="rgb(238,156,56)" d="M 990.806 442.392 C 993.383 443.006 992.613 442.734 994.909 443.96 C 997.986 450.142 990.26 473.141 988.205 480.812 L 983.595 479.78 L 982.908 478.495 C 983.026 470.451 986.442 448.496 990.806 442.392 z"/>
<path transform="translate(0,0)" fill="rgb(238,156,56)" d="M 853.006 472.375 C 859.831 474.425 870.502 492.416 874.977 498.608 C 877.144 501.606 876.623 502.816 875.936 505.563 C 867.906 504.943 856.919 486.734 852.66 479.91 C 850.861 477.026 851.976 475.162 853.006 472.375 z"/>
<path transform="translate(0,0)" fill="rgb(238,156,56)" d="M 923.368 442.53 C 923.95 442.85 925.361 444.087 925.94 444.564 C 928.27 453.201 929.55 464.558 930.355 473.507 C 930.649 476.781 929.054 477.779 927.117 479.907 C 921.832 475.482 918.912 452.804 919.558 445.671 C 919.7 444.096 921.974 443.365 923.368 442.53 z"/>
<path transform="translate(0,0)" fill="rgb(238,156,56)" d="M 803.046 527.964 C 812.601 527.469 830.041 537.746 837.14 544.507 C 838.24 545.555 837.494 547.538 837.304 549.077 C 829.867 548.364 805.252 535.918 803.046 527.964 z"/>
<path transform="translate(0,0)" fill="rgb(238,156,56)" d="M 1058.5 473.321 C 1061.85 474.954 1060.96 473.712 1062.11 476.497 C 1059.79 484.14 1047.45 497.681 1041.86 504.352 L 1039.04 503.085 L 1038.28 501.034 C 1040.4 492.922 1052.48 479.213 1058.5 473.321 z"/>
<path transform="translate(0,0)" fill="rgb(238,156,56)" d="M 1103.48 528.9 C 1106.22 530.177 1105.31 529.176 1106.36 531.939 C 1103.47 537.034 1085.48 545.905 1079.49 549.175 C 1076.65 548.786 1076.16 548.56 1075.46 546.013 C 1078.45 539.794 1096.99 531.905 1103.48 528.9 z"/>
<path transform="translate(0,0)" fill="rgb(7,71,149)" d="M 1417.24 705.035 L 1419.55 705.394 L 1419.93 706.801 C 1413.73 712.021 1386.71 720.746 1378.22 723.29 C 1376.46 723.283 1376.86 723.196 1375.11 722.515 C 1377.62 718.313 1410.73 707.183 1417.24 705.035 z"/>
<path transform="translate(0,0)" fill="url(#Gradient1)" d="M 1206.99 639.434 C 1205.71 636.696 1204.53 636.931 1201.06 635.191 L 1201.24 634.347 L 1203.83 634.723 L 1204.39 634.264 C 1205.48 635.009 1206.16 634.659 1208 634.671 C 1213.3 636.94 1239.33 648.853 1242.34 651.516 C 1230.53 647.553 1218.75 643.526 1206.99 639.434 z"/>
<path transform="translate(0,0)" fill="rgb(7,71,149)" d="M 1456.65 682.862 L 1458.83 683.368 L 1458.73 685.273 C 1454.26 691.453 1441.66 697.52 1434.19 699.412 L 1433.08 698.927 L 1432.98 698.063 C 1439.95 692.877 1449.15 687.508 1456.65 682.862 z"/>
<path transform="translate(0,0)" fill="rgb(18,25,29)" d="M 1469.26 651.269 C 1476.75 655.478 1473.27 666.544 1470.54 672.649 L 1469.26 672.898 C 1467.99 670.576 1470.31 657.878 1469.26 651.269 z"/>
<path transform="translate(0,0)" fill="rgb(18,25,29)" fill-opacity="0.0117647" d="M 951.994 568.774 L 953.151 569.282 L 953.594 570.733 L 949.344 575.454 L 948.319 575.802 L 947.705 574.563 C 949.235 572.684 950.669 570.806 951.994 568.774 z"/>
</svg>